PathFileType	4	(X/Y/Z)	Patient4_TMGait_0pt6_01_right_34.trc.trc
DataRate	CameraRate	NumFrames	NumMarkers	Units	OrigDataRate	OrigDataStartFrame	OrigNumFrames
84.337349397591	84.337349397591	4	33	mm	84.337349397591	53	       141
Frame#	Time	Sacral			L.Shoulder			Chest			R.Shoulder			Neck			R.ASIS			L.ASIS			R.Thigh.Superior			R.Thigh.Lateral			R.Thigh.Inferior			R.Patella			L.Thigh.Superior			L.Thigh.Lateral			L.Thigh.Inferior			L.Patella			L.Shank.Superior			L.Shank.Lateral			L.Shank.Inferior			R.Shank.Superior			R.Shank.Lateral			R.Shank.Inferior			R.Heel			R.Midfoot.Superior			R.Midfoot.Lateral			R.Toe			L.Heel			L.Midfoot.Lateral			L.Midfoot.Superior			L.Toe			L.Elbow			L.Wrist			R.Elbow			R.Wrist			
		X1	Y1	Z1	X2	Y2	Z2	X3	Y3	Z3	X4	Y4	Z4	X5	Y5	Z5	X6	Y6	Z6	X7	Y7	Z7	X8	Y8	Z8	X9	Y9	Z9	X10	Y10	Z10	X11	Y11	Z11	X12	Y12	Z12	X13	Y13	Z13	X14	Y14	Z14	X15	Y15	Z15	X16	Y16	Z16	X17	Y17	Z17	X18	Y18	Z18	X19	Y19	Z19	X20	Y20	Z20	X21	Y21	Z21	X22	Y22	Z22	X23	Y23	Z23	X24	Y24	Z24	X25	Y25	Z25	X26	Y26	Z26	X27	Y27	Z27	X28	Y28	Z28	X29	Y29	Z29	X30	Y30	Z30	X31	Y31	Z31	X32	Y32	Z32	X33	Y33	Z33	

53	41.426571428571	759.515827171308	1009.694847791534	514.763212948010	910.821328828341	1435.175187092477	320.124953262308	1029.717192026108	1373.591498009711	472.393310766274	959.535905186108	1446.237765560105	651.841805619046	903.362854988464	1497.394145524148	474.109216699126	990.730854831755	946.991401137588	619.665200030959	964.062920119803	966.841651603378	347.835000031449	1018.741986443469	738.758953240295	583.756003978825	932.482073646354	633.084732680004	643.674709958836	1000.288539773841	578.680382007356	558.613138405010	994.143060548314	491.275475442154	560.634247419688	1056.779439906885	792.646887019707	379.356064765111	1023.506667284288	667.646284653565	294.876199254009	1129.576213217291	610.720839107551	355.791580945531	1151.632271814805	526.321935569032	346.633756419391	1100.940318109942	451.077340270117	336.979037915004	976.216376693262	376.186766521493	284.846975838664	997.421574780566	246.410129553499	336.640078595298	965.448270720876	403.221010185388	565.388517846145	894.382046573609	298.952252248845	625.095604358779	930.765405867333	205.739530005095	556.846524775659	791.995164728746	42.943717797618	525.342729926023	964.023975437043	96.908298073282	559.097534025578	876.157164083178	36.801328106894	598.805493420200	1084.417770174625	42.493970367083	584.771975788478	829.642607615821	138.578715714465	369.753975759538	896.701064916296	105.937705669047	291.221351481506	996.593178408705	137.039053701264	313.740806119086	1097.059260914480	44.567354358433	289.277101906047	859.118090284903	1077.184055650049	221.315262394404	888.703742633959	819.567774712662	219.082924247916	1033.214074463861	1112.234875602514	782.745675000333	1281.289180075712	1075.870765970297	734.496705337515	
54	41.438428571429	758.750565680746	1010.435060791622	515.492692195853	910.549469531941	1435.518284526351	320.578272354845	1029.961935082614	1373.370862422628	472.171430926948	960.990201528065	1446.280561378031	651.983425515931	903.938475930860	1497.615296175184	474.449202997776	989.876601990167	946.760455182101	619.443016481055	962.699923467482	967.271346831497	347.678519217034	1015.497545828237	737.964592943170	583.438770107292	928.195475138042	633.162114360448	643.845245616001	994.980735097568	578.042287679643	558.659717503016	987.974931989811	490.989404966042	560.822129433146	1055.206141574603	793.353725109393	379.554082175392	1021.696559432632	668.077000463587	294.994385561767	1127.298195230776	611.138479366194	356.084932681920	1150.378995775019	528.821969580575	347.253930594468	1104.148297215345	453.020986004277	336.894037741834	986.054437521684	369.840443635341	283.292587933510	1016.165133999581	241.632753730842	335.068886024870	959.084995548437	403.036651578464	565.542079952805	887.726711417969	298.951571817733	625.205993402597	923.923317718311	205.640696790420	556.928230979356	784.855970265219	42.988497257030	525.328391786644	956.872716700748	96.806491659949	559.070349553619	868.994512055846	36.815186848799	598.797797075153	1077.242977800065	42.387396351853	584.863509540404	857.028143908398	121.115464864769	366.669880764745	926.856419215020	94.774788081271	288.235601309450	1023.794538756592	133.044803253483	311.645829463518	1131.118366940683	48.921235469537	287.008795174240	851.131911269587	1079.236326784764	221.197917657931	874.846264213733	821.053178205458	219.346457737448	1041.072724957563	1114.189392029164	781.923912968577	1289.685728068032	1094.348033944491	730.463113100590	
55	41.450285714286	757.988992369829	1011.076098441588	516.119102725801	910.419002367540	1435.770392603976	320.955452995223	1030.284449747261	1372.985030489826	471.895637909752	962.492899662247	1446.138904346356	652.052961461011	904.588882674107	1497.711408646637	474.730814225682	989.018434211954	946.401128824165	619.110048269193	961.334475773994	967.515553618296	347.388029225633	1012.336856357552	737.124844490278	583.127615017287	923.978502908231	633.174485021621	643.940899944820	989.787220404392	577.376857294147	558.658824665434	981.946413435006	490.670713631601	560.937861115870	1053.212448125175	793.311365589399	379.457503013788	1018.931297103826	667.867928793687	294.922542199451	1123.898988504476	610.601660983089	356.334591681774	1147.912038698361	530.640121742297	347.975549889582	1106.303094259924	454.727844236507	336.923495110404	995.812369644029	363.431854823860	281.587979636562	1034.775495400487	237.582423581660	333.719897746700	952.830322581755	402.814777412955	565.623800554695	881.168566799167	298.936754009645	625.278415758942	917.123748398316	205.514400598232	556.970000290625	777.714301888763	43.038821371723	525.312604789324	949.717734809688	96.690733321384	559.013559011591	861.834981087810	36.829707748109	598.787784275470	1070.071231632068	42.273855427596	584.947732613176	885.392050652509	104.872898151186	363.460892374930	957.847487839579	84.855671206355	285.528989640983	1051.132176761087	130.218738748226	310.086441467629	1164.817041015082	54.950799888831	286.051927754436	843.513739736176	1081.306197176381	221.110318484599	861.649099302745	822.713277414078	219.510036430158	1048.814620729764	1116.065358738271	780.923984454464	1296.806794595301	1112.363943106516	726.312091326660	
56	41.462142857143	757.239313708497	1011.611666916108	516.641175507284	910.421607435747	1435.924998813184	321.247401884273	1030.675637354258	1372.440899008990	471.567169341830	964.025285440686	1445.831376463086	652.040718572203	905.302708956951	1497.682770957423	474.950863311401	988.177974059567	945.925382055469	618.673179811720	959.959033439360	967.584153639713	346.980011613272	1009.289757509811	736.247983763167	582.814587604745	919.876115311978	633.117961010934	643.953502784223	984.759083663247	576.683506248419	558.604583183686	976.105678737989	490.307622152874	560.970837596238	1050.799261608294	792.552390281277	379.091054456506	1015.344159158562	667.108991749712	294.600914925218	1119.519884762477	609.236581204512	356.540372866576	1144.410340844786	531.863017071193	348.748080167561	1107.491194417161	456.263003912541	337.017697970884	1005.365064008835	357.218862173967	279.832493362952	1052.963228808667	234.483803937198	332.652355020066	946.720292351749	402.550315639382	565.626829789673	874.736644001689	298.910346024750	625.306861882328	910.383759879063	205.360530338323	556.968814520833	770.571165095113	43.094822716964	525.299552733158	942.562240387563	96.567950137422	558.936247019967	854.679971557026	36.844870253184	598.777635025945	1062.906419534185	42.153755549067	585.024836909445	914.229695620233	90.339930393950	360.387676439637	989.093116980178	76.514106016712	283.283192101227	1078.128520961157	128.762102621595	309.111812706980	1197.556714040242	62.670051857939	286.352532247567	836.370511722209	1083.330913182020	221.061930981734	849.127213393882	824.470061601538	219.541663786072	1056.397726590880	1117.869394784789	779.763513528916	1302.703297344260	1129.792207656375	722.087069084341	
